<svg data-v-2cb57da0="" version="1.0"
    xmlns="http://www.w3.org/2000/svg"
    xmlns:xlink="http://www.w3.org/1999/xlink" width="100%" height="100%" viewBox="0 0 340.000000 250.000000" preserveAspectRatio="xMidYMid meet" color-interpolation-filters="sRGB" style="margin: auto;">
    <g data-v-2cb57da0="" fill="#333" class="iconlettersvg-g iconlettersvg" transform="translate(87.26334381103516,102.4999885559082)">
        <g>
            <g class="tp-name" opacity="0.947077118419684" transform="matrix(1,0,0,1,0,0)">
                <g transform="scale(1)">
                    <g transform="translate(0, 0)">
                        <g class="name-imagesvg">
                            <g>
                                <rect fill="#333" fill-opacity="0" stroke-width="2" x="0" y="0" width="39.375" height="45" class="image-rect"></rect>
                                <svg x="0" y="0" width="39.375" height="45" filtersec="colorsb7666185145" class="image-svg-svg primary" style="overflow: visible;">
                                    <svg
                                        xmlns="http://www.w3.org/2000/svg" viewBox="0 0 409.5 468">
                                        <path d="M0 0l12.8 29.25L195.61 447.1l9.14 20.9L409.5 0zm208.13 393.11l-1.13 2.7a2.43 2.43 0 0 1-2.23 1.5 2.44 2.44 0 0 1-2.23-1.45L41.64 30.23A2.45 2.45 0 0 1 42.89 27a2.45 2.45 0 0 1 3.22 1.25l.43 1 158.15 359.43 10.06-24.15 134-321.59a2.44 2.44 0 1 1 4.5 1.87z" fill="#94d30e" opacity=".7"></path>
                                        <path d="M292.5 29.25l-77.75 335.28-10.06 24.15L46.54 29.25zm-87.73 368.06a2.44 2.44 0 0 1-2.23-1.45L41.64 30.23a2.42 2.42 0 0 1-.2-1H0L190.76 468l4.85-20.9 12.52-54-1.13 2.7a2.43 2.43 0 0 1-2.23 1.51z" fill="#2f97dd" opacity=".7"></path>
                                    </svg>
                                </svg>
                                <!---->
                            </g>
                        </g>
                    </g>
                    <g transform="translate(39.375, 0)">
                        <g class="name-imagesvg">
                            <g>
                                <rect fill="#333" fill-opacity="0" stroke-width="2" x="0" y="0" width="11.25" height="45" class="image-rect"></rect>
                                <svg x="0" y="0" width="11.25" height="45" filtersec="colorsb3990727644" class="image-svg-svg primary" style="overflow: visible;">
                                    <svg
                                        xmlns="http://www.w3.org/2000/svg" viewBox="0 0 117 468">
                                        <path d="M0 0v468h117V0zm31.69 438.75a2.44 2.44 0 0 1-4.88 0V29.25a2.44 2.44 0 0 1 4.88 0z" fill="#6228f1" opacity=".7"></path>
                                    </svg>
                                </svg>
                                <!---->
                            </g>
                        </g>
                    </g>
                    <g transform="translate(50.625, 0)">
                        <g class="name-imagesvg">
                            <g>
                                <rect fill="#333" fill-opacity="0" stroke-width="2" x="0" y="0" width="34.83832509129426" height="45" class="image-rect"></rect>
                                <svg x="0" y="0" width="34.83832509129426" height="45" filtersec="colorsb2827945965" class="image-svg-svg primary" style="overflow: visible;">
                                    <svg
                                        xmlns="http://www.w3.org/2000/svg" viewBox="0 0 351 453.38">
                                        <path d="M117 277.88V0H0v453.38h351v-175.5zM26.81 29.25a2.44 2.44 0 0 1 4.88 0v392.44H292.5a2.44 2.44 0 1 1 0 4.87H29.25a2.44 2.44 0 0 1-2.44-2.44V29.25z" fill="#6228f1" opacity=".7"></path>
                                        <path d="M31.69 421.69H292.5a2.44 2.44 0 1 1 0 4.87H29.25a2.44 2.44 0 0 1-2.44-2.44v-87.74H14.62v102.37h307.13V336.38H31.69z" fill="#2f97dd" opacity=".7"></path>
                                    </svg>
                                </svg>
                                <!---->
                            </g>
                        </g>
                    </g>
                    <g transform="translate(85.46332509129425, 0)">
                        <g class="name-imagesvg">
                            <g>
                                <rect fill="#333" fill-opacity="0" stroke-width="2" x="0" y="0" width="39.229219098649224" height="45" class="image-rect"></rect>
                                <svg x="0" y="0" width="39.229219098649224" height="45" filtersec="colorsb7703005184" class="image-svg-svg primary" style="overflow: visible;">
                                    <svg
                                        xmlns="http://www.w3.org/2000/svg" viewBox="0 0 408.69 468.81">
                                        <path d="M408.69 468L0 468.81V.81L351.81 0l-1.62 117h-175.5v84.81l-143.94.49-.11-26.8-.57-143h290.06a2.44 2.44 0 0 0 0-4.88H27.63a2.44 2.44 0 0 0-2.44 2.45l.58 145.43.46 117 .58 145.5a2.45 2.45 0 0 0 2.44 2.43h351a2.44 2.44 0 1 0 0-4.88H31.68l-.57-143-.34-85.32 143.92-.5V351l233.19-2.44z" fill="#6228f1" opacity=".7"></path>
                                        <path d="M291.69 175.5v117H31.11l-.34-85.32 143.92-.5 88.57-.3a2.44 2.44 0 0 0 0-4.88l-88.55.31-143.94.49-.11-26.8h261.03zM0 175.5v117h26.23l-.46-117z" fill="#2f97dd" opacity=".7"></path>
                                    </svg>
                                </svg>
                                <!---->
                            </g>
                        </g>
                    </g>
                    <g transform="translate(124.69254418994348, 0)">
                        <g class="name-imagesvg">
                            <g>
                                <rect fill="#333" fill-opacity="0" stroke-width="2" x="0" y="0" width="40.78076876126803" height="45" class="image-rect"></rect>
                                <svg x="0" y="0" width="40.78076876126803" height="45" filtersec="colorsb7141506335" class="image-svg-svg primary" style="overflow: visible;">
                                    <svg
                                        xmlns="http://www.w3.org/2000/svg" viewBox="0 0 424.13 468">
                                        <path d="M0 0l149.36 229 29.16 44.72L209 234l-34.56-45.08L41.94 16.11a2.44 2.44 0 0 1 3.87-3L177.19 184.5l34.87 45.5 41.59-54.24L378.32 13.14a2.44 2.44 0 1 1 3.86 3L256.3 180.3 215.13 234l37.1 48.39L284.72 229 424.12 0z" fill="#6228f1" opacity=".7"></path>
                                        <path fill="#6228f1" opacity=".7" d="M181.35 278.07l38.03 58.31 30.14-49.52-37.46-48.85-30.71 40.06z"></path>
                                        <path d="M424.12 468H0l149.36-239 25.07-40.1L209 234l-30.47 39.74L41.94 451.89a2.44 2.44 0 0 0 3.87 3l135.54-176.82L212.06 238l37.46 48.85 128.8 168a2.44 2.44 0 0 0 1.93.95 2.4 2.4 0 0 0 1.48-.5 2.44 2.44 0 0 0 .45-3.42l-130-169.5L215.13 234l41.17-53.7 28.42 48.7zM253.65 175.75L219.38 117l-42.19 67.5 34.87 45.5z" fill="#94d30e" opacity=".7"></path>
                                    </svg>
                                </svg>
                                <!---->
                            </g>
                        </g>
                    </g>
                </g>
            </g>
        </g>
        <!---->
    </g>
    <defs v-gra="od"></defs>
</svg>